# xmcd
#
# Track frame offsets: 
#        150
#        20031
#        31568
#        45961
#        61617
#        72557
#        88106
#        97467
#        116337
#        128355
#        137267
#
# Disc length: 1919 seconds
#
# Revision: 0
# Processed by: cddbd v1.5.2PL0 Copyright (c) Steve Scherf et al.
# Submitted via: ExactAudioCopy v0.95b3
#
DISCID=85077d0b
DTITLE=Yusuf  - Roadsinger  FLAC
DYEAR=1900
DGENRE=
TTITLE0=Welcome Home
TTITLE1=Thinking 'Bout You
TTITLE2=Everytime I Dream
TTITLE3=The Rain
TTITLE4=World O' Darkness
TTITLE5=Be What You Must
TTITLE6=This Glass World
TTITLE7=Roadsinger
TTITLE8=All Kinds Of Roses
TTITLE9=Dream On (Until...)
TTITLE10=Shamsia
EXTD=
EXTT0=
EXTT1=
EXTT2=
EXTT3=
EXTT4=
EXTT5=
EXTT6=
EXTT7=
EXTT8=
EXTT9=
EXTT10=
PLAYORDER=
